<svg width="709" height="175" viewBox="0 0 709 175" fill="none" xmlns="http://www.w3.org/2000/svg">
<g clip-path="url(#clip0_1_138)">
<g clip-path="url(#clip1_1_138)">
<g clip-path="url(#clip2_1_138)">
<mask id="mask0_1_138" style="mask-type:luminance" maskUnits="userSpaceOnUse" x="0" y="1" width="709" height="174">
<path d="M708.636 1.21069H0.0234375V174.085H708.636V1.21069Z" fill="white"/>
</mask>
<g mask="url(#mask0_1_138)">
<path d="M1.15381 6.96875H17.3193V51.2594H25.2472V6.96875H50.4788V123.51H25.2472V75.0179H17.3193V123.51H1.15381V6.96875Z" fill="#323232"/>
<path d="M147.31 65.1632C147.31 102.698 134.922 126.257 98.8673 126.257C66.0948 126.257 53.8545 103.105 53.8545 64.8996C53.8545 29.0422 66.0948 5.39551 100.4 5.39551C134.705 5.39551 147.31 29.4655 147.31 65.1712V65.1632ZM88.0516 64.676C88.0516 91.5492 89.5612 99.3277 96.9777 99.3277C104.395 99.3277 106.795 91.8521 106.795 64.3885C106.795 38.9449 104.481 32.4044 96.893 32.4044C89.9404 32.4044 88.0439 38.7692 88.0439 64.668L88.0516 64.676Z" fill="#323232"/>
<path d="M174.725 37.212H146.319V6.97681H252.997V37.212H220.86V123.517H174.725V37.212Z" fill="#323232"/>
<path d="M300.619 87.764C301.726 92.6755 304.559 98.2656 313.069 98.2656C319.533 98.2656 323.001 95.5578 323.001 91.485C323.001 87.4122 321.895 84.1939 303.77 80.6401C260.267 72.1669 256.009 55.0608 256.009 39.8154C256.009 17.7978 274.288 1.19482 311.342 1.19482C345.229 1.19482 368.665 14.2441 370.399 38.1144H323.791C322.846 33.0273 320.323 29.138 312.914 29.138C307.555 29.138 304.877 31.3422 304.877 34.7362C304.877 38.8012 309.608 40.8296 321.91 43.2095C362.579 50.8361 373.449 65.7382 373.449 84.5453C373.449 110.468 351.067 126.552 314.02 126.552C273.669 126.552 254.329 109.614 251.023 87.764H300.627H300.619Z" fill="#323232"/>
<path d="M417.107 104.71L413.956 123.517H368.912L400.284 6.97681H462.762L490.796 123.517H446.31L442.919 104.71H417.083H417.092H417.107ZM436.888 73.3729C435.363 64.3007 431.6 46.7794 429.718 33.9058H430.269C428.371 47.2904 425.468 61.7372 423.378 73.3729H436.904H436.896H436.888Z" fill="#323232"/>
<path d="M529.243 6.96875V89.5526C529.243 95.9258 535.042 99.3037 540.3 99.3037C545.208 99.3037 551.038 96.1013 551.038 89.5526V6.96875H588.781V84.8488C588.781 115.372 565.082 126.823 538.465 126.823C511.847 126.823 487.591 114.421 487.591 84.6012V6.96875H529.243Z" fill="#323232"/>
<path d="M666.496 83.4114V84.6971C666.496 107.226 659.737 126.832 633.267 126.832C609.421 126.832 593.952 112.84 593.952 69.7871V62.2722C593.952 17.8857 613.068 4.0459 633.995 4.0459C659.93 4.0459 666.496 25.5763 666.496 45.3977V46.8991H636.294V44.9904C636.294 34.896 634.916 31.0308 632.562 31.0308C630.642 31.0308 627.6 35.1117 627.6 61.25V69.6913C627.6 97.2036 630.224 100.908 632.516 100.908C635.04 100.908 636.425 96.6199 636.425 85.4398V83.4114H666.504H666.496Z" fill="#323232"/>
<path d="M704.695 71.5041H690.954V101.316H708.636L705.803 123.51H670.956V6.96875H705.648V29.162H690.954V49.3268H704.695V71.52V71.5041Z" fill="#323232"/>
<path d="M262.667 166.37V142.253H266.298V151.756C267.444 149.991 269.163 149.128 271.447 149.113C273.397 149.113 274.907 149.712 275.968 150.902C277.036 152.091 277.57 153.752 277.57 155.876V166.363H273.94V156.396C273.94 153.641 272.747 152.267 270.378 152.267C269.186 152.267 268.21 152.642 267.452 153.369C266.693 154.112 266.306 155.158 266.306 156.499V166.354H262.675L262.66 166.378L262.667 166.37Z" fill="#323232"/>
<path d="M294.735 164.302C293.125 165.963 291.089 166.794 288.65 166.794C286.211 166.794 284.175 165.963 282.541 164.302C280.915 162.641 280.103 160.517 280.103 157.953C280.103 155.389 280.923 153.273 282.541 151.628C284.167 149.975 286.195 149.145 288.65 149.145C291.104 149.145 293.125 149.975 294.735 151.628C296.345 153.282 297.151 155.389 297.151 157.953C297.151 160.517 296.345 162.641 294.735 164.302ZM285.197 162.178C286.064 163.224 287.202 163.743 288.65 163.743C290.098 163.743 291.235 163.224 292.103 162.178C292.97 161.132 293.403 159.718 293.403 157.945C293.403 156.172 292.97 154.79 292.095 153.752C291.22 152.706 290.074 152.187 288.665 152.187C287.257 152.187 286.079 152.698 285.212 153.728C284.345 154.759 283.911 156.164 283.911 157.945C283.911 159.726 284.345 161.132 285.212 162.178H285.197Z" fill="#323232"/>
<path d="M305.567 166.794C302.221 166.794 300.549 164.949 300.549 161.252V152.714H298.025V149.552H300.65L301.494 144.593H304.227V149.552H310.723V152.714H304.227V161.147C304.227 162.697 304.777 163.472 305.875 163.472C306.914 163.472 307.834 162.506 308.663 160.557L311.489 162.042C310.096 165.205 308.121 166.794 305.574 166.794H305.567Z" fill="#323232"/>
<path d="M312.65 174.077C311.039 174.077 309.7 173.622 308.647 172.687L309.995 169.733C310.645 170.515 311.357 170.915 312.108 170.915C313.123 170.915 313.626 170.244 313.626 168.902V149.544H317.257V168.974C317.257 170.771 316.823 172.073 315.956 172.879C315.089 173.67 313.982 174.069 312.65 174.085V174.069V174.077ZM315.437 146.709C314.833 146.733 314.261 146.51 313.827 146.086C313.626 145.887 313.455 145.638 313.347 145.351C313.239 145.079 313.176 144.784 313.192 144.48C313.192 144.185 313.239 143.881 313.347 143.602C313.455 143.331 313.626 143.067 313.827 142.867C314.268 142.46 314.841 142.22 315.437 142.22C316.033 142.22 316.607 142.444 317.048 142.867C317.265 143.075 317.435 143.323 317.543 143.602C317.651 143.881 317.714 144.185 317.698 144.48C317.698 144.777 317.651 145.079 317.527 145.335C317.404 145.59 317.249 145.854 317.032 146.054C316.815 146.261 316.576 146.429 316.297 146.541C316.018 146.652 315.732 146.7 315.43 146.7L315.437 146.709Z" fill="#323232"/>
<path d="M326.276 166.794C324.411 166.794 322.909 166.306 321.755 165.356C320.601 164.398 320.02 163.112 320.02 161.483C320.02 160.006 320.625 158.752 321.824 157.722C323.024 156.691 324.534 156.18 326.346 156.18C328.157 156.18 329.776 156.787 331.061 158.017V155.972C331.061 154.766 330.759 153.84 330.17 153.177C329.582 152.522 328.731 152.187 327.631 152.187C325.409 152.187 324.031 153.353 323.497 155.686L320.168 154.95C320.609 153.153 321.499 151.724 322.823 150.686C324.147 149.64 325.796 149.121 327.771 149.121C329.923 149.121 331.618 149.703 332.873 150.87C334.111 152.035 334.739 153.745 334.739 155.981V166.354H331.201V164.23C330.008 165.915 328.375 166.761 326.292 166.761L326.276 166.785V166.794ZM326.95 164.014C328.561 164.014 329.931 163.184 331.054 161.523V161.004C329.938 159.615 328.561 158.92 326.95 158.92C326.013 158.92 325.239 159.159 324.666 159.63C324.388 159.838 324.17 160.118 324.015 160.437C323.86 160.756 323.783 161.108 323.783 161.451C323.783 161.794 323.845 162.161 324 162.482C324.147 162.801 324.372 163.088 324.65 163.304C325.231 163.775 325.982 164.014 326.958 164.014L326.942 164.031L326.95 164.014Z" fill="#323232"/>
<path d="M338.253 166.37V149.544H341.791V152.459C342.698 150.334 344.23 149.272 346.437 149.272C347.738 149.272 348.821 149.703 349.657 150.59C350.51 151.468 350.935 152.65 350.935 154.128C350.935 155.006 350.78 155.893 350.501 156.731L347.172 156.379C347.242 155.924 347.281 155.461 347.304 154.991C347.304 153.249 346.607 152.387 345.221 152.387C344.284 152.387 343.487 152.898 342.853 153.928C342.218 154.958 341.892 156.308 341.892 158.009V166.37H338.261H338.253Z" fill="#323232"/>
<path d="M239.983 152.131C242.693 150.582 246.393 148.457 246.393 142.269H241.903C241.903 145.727 240.269 146.661 237.799 148.09C235.09 149.64 231.389 151.764 231.389 157.954H235.879C235.879 154.495 237.513 153.561 239.983 152.131Z" fill="#FF3C00"/>
<path d="M247.74 150.702C247.74 154.16 246.106 155.094 243.637 156.523C240.927 158.073 237.227 160.197 237.227 166.387H241.717C241.717 162.928 243.351 161.994 245.821 160.565C248.53 159.016 252.231 156.891 252.231 150.702H247.74Z" fill="#FF3C00"/>
<path d="M6.29455 148.457H11.0792L17.3503 166.346H13.4637L12.3489 163H5.02485L3.90998 166.346H0.0234375L6.29455 148.457ZM11.3966 160.157L8.79526 152.363H8.57074L5.96939 160.157H11.3966Z" fill="#323232"/>
<path d="M24.3801 157.402C24.3801 151.628 27.5544 148.226 32.5791 148.226C36.3727 148.226 39.4154 150.223 39.7637 154.663H36.1482C35.6526 152.443 34.2436 151.516 32.4551 151.516C29.4358 151.516 28.1661 154.096 28.1661 157.394C28.1661 160.692 29.4048 163.295 32.4551 163.295C34.2358 163.295 35.6526 162.377 36.1482 160.126H39.7637C39.4154 164.598 36.3727 166.594 32.5326 166.594C27.5544 166.594 24.3801 163.192 24.3801 157.394V157.402Z" fill="#323232"/>
<path d="M41.2888 157.402C41.2888 151.908 44.556 148.226 49.5651 148.226C54.5743 148.226 57.8414 151.908 57.8414 157.402C57.8414 162.897 54.5743 166.602 49.5651 166.602C44.556 166.602 41.2888 162.873 41.2888 157.402ZM49.5651 163.304C52.4142 163.304 54.0246 160.956 54.0246 157.402C54.0246 153.848 52.4142 151.525 49.5651 151.525C46.716 151.525 45.1057 153.824 45.1057 157.402C45.1057 160.98 46.716 163.304 49.5651 163.304Z" fill="#323232"/>
<path d="M60.1797 148.457H64.043L71.0263 160.213H71.1038V148.457H74.82V166.346H70.8096L63.9733 154.823H63.8959V166.346H60.1797V148.457Z" fill="#323232"/>
<path d="M77.8007 148.457H89.2667V151.78H81.5092V155.972H87.9273V159.063H81.5092V166.346H77.793V148.457H77.8007Z" fill="#323232"/>
<path d="M91.0476 148.457H102.885V151.78H94.7558V155.789H102.142V158.776H94.7558V163.016H103.133V166.339H91.0476V148.45V148.457Z" fill="#323232"/>
<path d="M105.51 148.457H112.524C117.131 148.457 119.136 150.933 119.136 154.439C119.136 156.971 118.067 159.015 115.668 159.91L119.307 166.346H115.637L112.339 160.389H109.218V166.346H105.502V148.457H105.51ZM112.4 157.067C114.429 157.067 115.327 156.02 115.327 154.431C115.327 152.842 114.436 151.772 112.4 151.772H109.226V157.059H112.4V157.067Z" fill="#323232"/>
<path d="M121.482 148.457H133.32V151.78H125.19V155.789H132.576V158.776H125.19V163.016H133.567V166.339H121.482V148.45V148.457Z" fill="#323232"/>
<path d="M135.952 148.457H139.815L146.799 160.213H146.876V148.457H150.593V166.346H146.581L139.745 154.823H139.668V166.346H135.952V148.457Z" fill="#323232"/>
<path d="M152.977 157.402C152.977 151.628 156.151 148.226 161.175 148.226C164.969 148.226 168.012 150.223 168.36 154.663H164.745C164.25 152.443 162.84 151.516 161.051 151.516C158.032 151.516 156.763 154.096 156.763 157.394C156.763 160.692 158.001 163.295 161.051 163.295C162.832 163.295 164.25 162.377 164.745 160.126H168.36C168.012 164.598 164.969 166.594 161.129 166.594C156.151 166.594 152.977 163.192 152.977 157.394V157.402Z" fill="#323232"/>
<path d="M170.614 148.457H182.451V151.78H174.322V155.789H181.707V158.776H174.322V163.016H182.698V166.339H170.614V148.45V148.457Z" fill="#323232"/>
<path d="M191.354 148.457H198.392C202.255 148.457 204.012 150.223 204.012 152.93C204.012 154.871 203.146 155.972 201.512 156.508C204.09 157.226 205.205 158.887 205.205 161.108C205.205 163.999 203.27 166.346 198.686 166.346H191.354V148.457ZM198.245 155.717C199.359 155.717 200.304 155.102 200.304 153.649C200.304 152.195 199.359 151.684 198.245 151.684H195.071V155.725H198.245V155.717ZM198.57 163.128C200.653 163.128 201.373 161.978 201.373 160.677C201.373 159.375 200.653 158.145 198.57 158.145H195.079V163.128H198.57Z" fill="#323232"/>
<path d="M211.468 159.774L205.198 148.457H209.409L213.373 156.077L217.361 148.457H221.572L215.301 159.774V166.339H211.461V159.774H211.468Z" fill="#323232"/>
</g>
</g>
</g>
</g>
<defs>
<clipPath id="clip0_1_138">
<rect width="708.66" height="173.73" fill="white" transform="translate(0 0.689941)"/>
</clipPath>
<clipPath id="clip1_1_138">
<rect width="708.66" height="173.73" fill="white" transform="translate(0 0.689941)"/>
</clipPath>
<clipPath id="clip2_1_138">
<rect width="708.613" height="173.73" fill="white" transform="translate(0.0234375 0.689941)"/>
</clipPath>
</defs>
</svg>
