<svg width="10" height="221" viewBox="0 0 10 221" fill="none" xmlns="http://www.w3.org/2000/svg">
<path fill-rule="evenodd" clip-rule="evenodd" d="M0.958138 211.986C5.54231 212.078 9.23009 215.823 9.23009 220.429C9.23009 220.473 9.22976 220.516 9.2291 220.56L10.9885 220.56V0.662796L9.22803 0.663467C9.22945 0.72699 9.23017 0.791168 9.23017 0.855362C9.23017 5.46199 5.54234 9.20668 0.958138 9.29897V19.8583C5.54234 19.9506 9.23017 23.6959 9.23017 28.3019C9.23017 32.9085 5.54234 36.6532 0.958138 36.7455V47.3055C5.54234 47.3978 9.23017 51.1424 9.23017 55.7491C9.23017 60.355 5.54234 64.1004 0.958138 64.1926V74.752C5.54234 74.8443 9.23017 78.5889 9.23017 83.1956C9.23017 87.8015 5.54234 91.5469 0.958138 91.6391V102.199C5.54234 102.291 9.23017 106.036 9.23017 110.643C9.23017 115.249 5.54234 118.993 0.958138 119.086V129.646C5.54234 129.738 9.23017 133.483 9.23017 138.089C9.23017 142.695 5.54234 146.44 0.958138 146.532V157.092C5.54234 157.185 9.23017 160.93 9.23017 165.536C9.23017 170.142 5.54234 173.887 0.958138 173.979V184.539C5.54234 184.631 9.23017 188.376 9.23017 192.982C9.23017 197.589 5.54234 201.334 0.958138 201.426V211.986Z" fill="white"/>
</svg>
