<svg width="341" height="8" viewBox="0 0 341 8" fill="none" xmlns="http://www.w3.org/2000/svg">
<g clip-path="url(#clip0_631_76)">
<path d="M170.884 1.40384C167.36 1.47509 164.516 4.38882 164.445 7.99999H156.228C156.156 4.34374 153.242 1.4024 149.657 1.4024C146.072 1.4024 143.158 4.34374 143.087 7.99999H134.869C134.797 4.34374 131.883 1.4024 128.299 1.4024C124.715 1.4024 121.8 4.34374 121.728 7.99999H113.511C113.44 4.34374 110.525 1.4024 106.94 1.4024C103.356 1.4024 100.442 4.34374 100.37 7.99999L92.153 8C92.0812 4.34374 89.1673 1.4024 85.5824 1.4024C81.9983 1.4024 79.0837 4.34374 79.0125 8H70.7945C70.7232 4.34374 67.8087 1.4024 64.2244 1.4024C60.6397 1.4024 57.7257 4.34374 57.654 8H49.4365C49.3647 4.34374 46.4507 1.4024 42.8664 1.4024C39.2817 1.4024 36.3677 4.34374 36.2959 8H28.0785C28.0066 4.34375 25.0922 1.4024 21.5079 1.4024C17.9232 1.4024 15.0091 4.34375 14.9374 8H6.72039C6.64859 4.34375 3.7341 1.4024 0.149893 1.4024C0.0999381 1.4024 0.0499545 1.40299 0 1.40416V0H342V1.40326C341.966 1.40272 341.932 1.40245 341.899 1.40245C338.314 1.40245 335.399 4.34375 335.328 7.99998H327.111C327.039 4.34373 324.124 1.4024 320.54 1.4024C316.956 1.4024 314.042 4.34373 313.97 7.99998H305.752C305.681 4.34373 302.767 1.4024 299.182 1.4024C295.598 1.4024 292.683 4.34373 292.612 7.99998H284.394C284.323 4.34373 281.408 1.4024 277.823 1.4024C274.239 1.4024 271.326 4.34373 271.254 7.99998H263.036C262.964 4.34373 260.051 1.4024 256.465 1.4024C252.881 1.4024 249.967 4.34373 249.895 7.99998H241.677C241.606 4.34373 238.692 1.4024 235.108 1.4024C231.523 1.4024 228.608 4.34373 228.537 7.99998H220.32C220.248 4.34373 217.333 1.4024 213.749 1.4024C210.164 1.4024 207.251 4.34373 207.179 7.99998H198.961C198.889 4.34373 195.976 1.4024 192.391 1.4024C188.807 1.4024 185.892 4.34373 185.82 7.99998H177.604C177.532 4.37236 174.663 1.44854 171.117 1.40294C171.083 1.4024 171.049 1.40251 171.016 1.40251C171.009 1.40251 171.003 1.40251 170.997 1.40251C170.959 1.40272 170.921 1.40294 170.884 1.40384Z" fill="#CCCCCC"/>
</g>
<defs>
<clipPath id="clip0_631_76">
<rect width="341" height="8" fill="white"/>
</clipPath>
</defs>
</svg>
