<svg width="342" height="25" viewBox="0 0 342 25" fill="none" xmlns="http://www.w3.org/2000/svg">
<mask id="mask0_630_56" style="mask-type:luminance" maskUnits="userSpaceOnUse" x="0" y="0" width="342" height="25">
<path d="M342 0.75H0V24.75H342V0.75Z" fill="white"/>
</mask>
<g mask="url(#mask0_630_56)">
<mask id="mask1_630_56" style="mask-type:luminance" maskUnits="userSpaceOnUse" x="-1" y="8" width="342" height="9">
<path d="M341 8.85156H-1V16.6479H341V8.85156Z" fill="white"/>
</mask>
<g mask="url(#mask1_630_56)">
<path d="M-0.89858 15.2811C2.68174 15.2811 5.5926 12.4147 5.66427 8.85157H13.8723C13.944 12.4147 16.8548 15.2812 20.4352 15.2812C24.0155 15.2812 26.9263 12.4147 26.998 8.85157H35.2058C35.2775 12.4147 38.1883 15.2812 41.7687 15.2812C45.349 15.2812 48.2598 12.4147 48.3315 8.85157H56.5397C56.6114 12.4147 59.522 15.2812 63.1027 15.2812C66.6827 15.2812 69.5934 12.4147 69.6651 8.85156H77.8731C77.9448 12.4147 80.8555 15.2812 84.4356 15.2812C88.0162 15.2812 90.9268 12.4147 90.9985 8.85156H99.2065C99.2783 12.4147 102.189 15.2812 105.769 15.2812C109.35 15.2812 112.261 12.4147 112.332 8.85156H120.54C120.612 12.4147 123.523 15.2812 127.103 15.2812C130.684 15.2812 133.594 12.4147 133.666 8.85156H141.874C141.946 12.4147 144.856 15.2812 148.437 15.2812C152.017 15.2812 154.928 12.4147 155 8.85156H163.207C163.279 12.3868 166.144 15.2362 169.686 15.2806C169.72 15.2812 169.754 15.2811 169.787 15.2811C169.792 15.2811 169.796 15.2811 169.8 15.2811C169.84 15.2809 169.88 15.2804 169.919 15.2795C173.439 15.21 176.28 12.3708 176.35 8.85157H184.558C184.63 12.4147 187.541 15.2812 191.121 15.2812C194.701 15.2812 197.613 12.4147 197.684 8.85157H205.892C205.964 12.4147 208.875 15.2812 212.455 15.2812C216.035 15.2812 218.946 12.4147 219.018 8.85157H227.226C227.297 12.4147 230.208 15.2812 233.789 15.2812C237.369 15.2812 240.28 12.4147 240.351 8.85156H248.559C248.631 12.4147 251.542 15.2812 255.122 15.2812C258.702 15.2812 261.613 12.4147 261.685 8.85156H269.893C269.964 12.4147 272.875 15.2812 276.456 15.2812C280.036 15.2812 282.947 12.4147 283.019 8.85156H291.227C291.298 12.4147 294.209 15.2812 297.789 15.2812C301.37 15.2812 304.28 12.4147 304.352 8.85156H312.56C312.632 12.4147 315.543 15.2812 319.123 15.2812C322.703 15.2812 325.614 12.4147 325.686 8.85156H333.893C333.965 12.4147 336.876 15.2812 340.456 15.2812C340.506 15.2812 340.556 15.2806 340.606 15.2795V16.6479H-0.999794L-1 15.2804C-0.966255 15.2809 -0.932447 15.2811 -0.89858 15.2811Z" fill="white"/>
</g>
</g>
</svg>
