<svg width="34" height="18" viewBox="0 0 34 18" fill="none" xmlns="http://www.w3.org/2000/svg">
<path fill-rule="evenodd" clip-rule="evenodd" d="M1.11504 0.705124C1.23115 0.588716 1.36909 0.496359 1.52095 0.433343C1.67282 0.370327 1.83562 0.337891 2.00004 0.337891C2.16446 0.337891 2.32726 0.370327 2.47912 0.433343C2.63098 0.496359 2.76892 0.588716 2.88504 0.705124L17 14.8226L31.115 0.705124C31.2313 0.588905 31.3692 0.496714 31.5211 0.433816C31.6729 0.370918 31.8357 0.338545 32 0.338545C32.1644 0.338545 32.3271 0.370918 32.479 0.433816C32.6308 0.496714 32.7688 0.588905 32.885 0.705124C33.0013 0.821344 33.0934 0.959317 33.1563 1.11117C33.2192 1.26301 33.2516 1.42576 33.2516 1.59012C33.2516 1.75448 33.2192 1.91724 33.1563 2.06908C33.0934 2.22093 33.0013 2.3589 32.885 2.47512L17.885 17.4751C17.7689 17.5915 17.631 17.6839 17.4791 17.7469C17.3273 17.8099 17.1645 17.8424 17 17.8424C16.8356 17.8424 16.6728 17.8099 16.521 17.7469C16.3691 17.6839 16.2312 17.5915 16.115 17.4751L1.11504 2.47512C0.998629 2.35901 0.906272 2.22107 0.843256 2.06921C0.78024 1.91735 0.747803 1.75454 0.747803 1.59012C0.747803 1.42571 0.78024 1.2629 0.843256 1.11104C0.906272 0.959177 0.998629 0.821239 1.11504 0.705124Z" fill="#212529"/>
</svg>
