<svg width="34" height="18" viewBox="0 0 34 18" fill="none" xmlns="http://www.w3.org/2000/svg">
<path fill-rule="evenodd" clip-rule="evenodd" d="M32.885 17.3642C32.7689 17.4806 32.631 17.573 32.4791 17.636C32.3272 17.699 32.1644 17.7314 32 17.7314C31.8356 17.7314 31.6728 17.699 31.5209 17.636C31.3691 17.573 31.2311 17.4806 31.115 17.3642L17 3.24671L2.88503 17.3642C2.7688 17.4804 2.63083 17.5726 2.47898 17.6355C2.32714 17.6984 2.16438 17.7308 2.00002 17.7308C1.83566 17.7308 1.67291 17.6984 1.52106 17.6355C1.36922 17.5726 1.23124 17.4804 1.11502 17.3642C0.998806 17.248 0.906612 17.11 0.843716 16.9582C0.780819 16.8063 0.748447 16.6436 0.748447 16.4792C0.748447 16.3149 0.780819 16.1521 0.843716 16.0003C0.906612 15.8484 0.998806 15.7104 1.11502 15.5942L16.115 0.594213C16.2311 0.477804 16.3691 0.385448 16.5209 0.322432C16.6728 0.259417 16.8356 0.226978 17 0.226978C17.1644 0.226978 17.3272 0.259417 17.4791 0.322432C17.631 0.385448 17.7689 0.477804 17.885 0.594213L32.885 15.5942C33.0014 15.7103 33.0938 15.8483 33.1568 16.0001C33.2198 16.152 33.2523 16.3148 33.2523 16.4792C33.2523 16.6436 33.2198 16.8064 33.1568 16.9583C33.0938 17.1102 33.0014 17.2481 32.885 17.3642Z" fill="#323232"/>
</svg>
